Coordinates
version=1
nRows=17
nColumns=24
inDegrees=yes

Units are S.I. units (second, meters, Newtons, ...)
Angles are in degrees.

endheader
time	pelvis_tilt	pelvis_list	pelvis_rotation	pelvis_tx	pelvis_ty	pelvis_tz	hip_flexion_r	hip_adduction_r	hip_rotation_r	knee_angle_r	ankle_angle_r	subtalar_angle_r	mtp_angle_r	hip_flexion_l	hip_adduction_l	hip_rotation_l	knee_angle_l	ankle_angle_l	subtalar_angle_l	mtp_angle_l	lumbar_extension	lumbar_bending	lumbar_rotation
      4.72000000	      5.94764261	      4.85568436	      3.71090016	     -0.66781523	      0.72383390	     -0.10297784	     12.82457929	      0.04128760	      3.82163872	      4.52322483	     10.29425133	     -6.97370640	      0.00000000	    -23.71094475	      9.11178244	      9.08230799	     -9.06300748	     18.25179634	     -7.53036953	      0.00000000	    -25.44781120	     -9.20844355	    -12.98949864
      4.73000000	      6.13091320	      4.44470878	      3.73627523	     -0.65581249	      0.72331098	     -0.10314439	     12.34097981	      0.59887886	      5.29948591	      3.90752194	      8.70710416	     -9.43128312	      0.00000000	    -23.51847738	      8.54943010	      7.28727206	    -11.40311944	     18.60967081	     -4.98224493	      0.00000000	    -25.43131360	     -8.61326975	    -13.07407882
      4.74000000	      6.32437862	      3.89144112	      3.68799774	     -0.64390724	      0.72321060	     -0.10318595	     12.01966631	      1.34293970	      6.54814344	      2.81081378	      6.95006678	    -12.00065169	      0.00000000	    -23.11498875	      7.83241786	      5.40890291	    -14.03684064	     18.46240688	     -2.81197991	      0.00000000	    -25.44283515	     -7.90740213	    -13.00297059
      4.75000000	      6.63656419	      3.09621148	      3.62753089	     -0.63208939	      0.72364706	     -0.10317353	     11.67970756	      2.36629932	      7.55221909	      1.38759263	      5.36461843	    -14.54972497	      0.00000000	    -22.54776028	      6.80471567	      3.39023032	    -17.07558102	     17.97407703	     -0.81936928	      0.00000000	    -25.60052148	     -6.93295089	    -12.83803791
      4.76000000	      6.89137449	      2.16929111	      3.52770184	     -0.62047836	      0.72444569	     -0.10305757	     11.70324720	      3.57996575	      7.44584486	     -0.61407829	      4.62697648	    -15.66287764	      0.00000000	    -21.56444236	      5.54560095	      1.10655422	    -20.60687650	     17.01180997	      1.22196303	      0.00000000	    -25.72850759	     -5.86299423	    -12.60352733
      4.77000000	      7.26658854	      1.14263411	      3.33434323	     -0.60898940	      0.72565141	     -0.10282913	     11.66736239	      4.90406518	      7.14664195	     -2.78942532	      4.27302001	    -16.45834936	      0.00000000	    -20.48985029	      4.08385787	     -1.23870042	    -24.40349272	     15.41864364	      3.00010741	      0.00000000	    -26.01692210	     -4.72834670	    -12.22536750
      4.78000000	      7.62123974	      0.13123423	      3.11555618	     -0.59763027	      0.72701713	     -0.10256742	     11.63760241	      6.18024019	      6.65216056	     -4.96534849	      4.29106384	    -16.86803970	      0.00000000	    -19.19212168	      2.52343821	     -3.42700937	    -28.43532326	     13.10014415	      4.43342345	      0.00000000	    -26.30716262	     -3.64897581	    -11.82598447
      4.79000000	      7.92907742	     -0.80925752	      2.93039874	     -0.58638620	      0.72840911	     -0.10233731	     11.52424250	      7.33099757	      6.05897636	     -6.91687389	      4.55587781	    -17.00183296	      0.00000000	    -17.68899973	      0.92206370	     -5.28668831	    -32.59662074	     10.05731655	      5.46160974	      0.00000000	    -26.56296920	     -2.66120839	    -11.46999888
      4.80000000	      8.16812788	     -1.62396056	      2.83396874	     -0.57527328	      0.72974019	     -0.10216741	     11.24537090	      8.29332438	      5.42220104	     -8.43525380	      4.92714925	    -16.89509808	      0.00000000	    -15.97706230	     -0.66134800	     -6.73251425	    -36.80204810	      6.32176078	      6.12379746	      0.00000000	    -26.75975605	     -1.81520128	    -11.24481197
      4.81000000	      8.31953089	     -2.33191279	      2.88974740	     -0.56429977	      0.73093865	     -0.10212685	     10.78660709	      9.09490563	      4.79012204	     -9.44310689	      5.33286260	    -16.74759278	      0.00000000	    -14.05520050	     -2.18737782	     -7.59532446	    -40.95632269	      2.01654708	      6.36071721	      0.00000000	    -26.86575783	     -1.05898869	    -11.11468233
      4.82000000	      8.45221477	     -2.95852600	      3.10230108	     -0.55350270	      0.73204524	     -0.10218178	     10.03780232	      9.79115325	      4.26553794	     -9.85918694	      5.65247792	    -16.78352244	      0.00000000	    -12.00210786	     -3.67686173	     -7.99715347	    -45.00291524	     -2.58456561	      6.29272412	      0.00000000	    -26.96693344	     -0.36746776	    -11.07008409
      4.83000000	      8.43764055	     -3.43645210	      3.46276587	     -0.54291761	      0.73297902	     -0.10234161	      9.24059852	     10.30414499	      3.63827019	     -9.86468624	      6.03800372	    -16.56691364	      0.00000000	     -9.68415416	     -4.97653268	     -7.89441453	    -48.88285463	     -7.24917684	      6.03256809	      0.00000000	    -26.91505537	      0.17342012	    -11.15061714
      4.84000000	      8.48497454	     -3.94452570	      3.92783475	     -0.53250811	      0.73392626	     -0.10255036	      8.15858363	     10.87444470	      3.21419264	     -9.44348289	      6.33213794	    -16.56761622	      0.00000000	     -7.36653382	     -6.26788622	     -7.48271577	    -52.54667503	    -11.48374632	      5.68752024	      0.00000000	    -26.94118754	      0.76262183	    -11.17034728
      4.85000000	      8.38075136	     -4.28658202	      4.41090878	     -0.52228949	      0.73477421	     -0.10281127	      7.13346846	     11.27066099	      2.87056956	     -8.82432267	      6.76783395	    -16.55418566	      0.00000000	     -4.87533743	     -7.19781347	     -6.73681492	    -55.90061985	    -15.07991544	      4.96463395	      0.00000000	    -26.80921970	      1.14579092	    -11.20703053
      4.86000000	      8.37157245	     -4.59877009	      4.80796032	     -0.51225265	      0.73578846	     -0.10301323	      5.99565486	     11.67044956	      2.70445240	     -8.19819424	      7.17741883	    -16.53816152	      0.00000000	     -2.54478527	     -7.96955180	     -5.96720614	    -58.90681423	    -17.66891774	      4.18484720	      0.00000000	    -26.81873754	      1.45494226	    -11.04951069
      4.87000000	      8.28897214	     -4.77404490	      5.05490475	     -0.50233299	      0.73686751	     -0.10317915	      4.92526100	     11.93011231	      2.73348954	     -7.59488626	      7.68940456	    -16.50739160	      0.00000000	     -0.26014606	     -8.39510905	     -5.20796206	    -61.50857010	    -19.03677735	      3.09096205	      0.00000000	    -26.75859276	      1.55356345	    -10.77736407
      4.88000000	      8.22406041	     -4.83943644	      5.11609170	     -0.49252274	      0.73810581	     -0.10329021	      3.88244641	     12.07814619	      2.95503261	     -7.12992008	      8.27373951	    -16.42910889	      0.00000000	      1.83997570	     -8.54924739	     -4.58359576	    -63.68847257	    -19.09708027	      1.83220298	      0.00000000	    -26.74395103	      1.47560391	    -10.34096866
